<?xml version="1.0" encoding="UTF-8"?>
<svg width="130px" height="36px" viewBox="0 0 130 36" version="1.1" xmlns="http://www.w3.org/2000/svg" xmlns:xlink="http://www.w3.org/1999/xlink">
    <!-- Generator: Sketch 64 (93537) - https://sketch.com -->
    <title>Logo</title>
    <desc>Created with Sketch.</desc>
    <g id="Page-1" stroke="none" stroke-width="1" fill="none" fill-rule="evenodd">
        <g id="Desktop-HD" transform="translate(-80.000000, -80.000000)" fill="#D22D2D" fill-rule="nonzero">
            <g id="Nav" transform="translate(80.000000, 80.000000)">
                <path d="M12.7463922,0 C18.4821242,0 23.0443387,2.96202912 23.3867795,8.02175755 L23.3937198,8.138 L16.7460153,8.969 L16.745455,8.8747708 C16.7015907,5.53127844 15.2940896,3.07862069 12.0463707,3.07862069 C9.09627989,3.07862069 7.2962245,5.16413793 7.2962245,7.79586207 C7.2962245,10.2317762 8.88459662,12.2852977 12.3446868,14.0502212 L12.546386,14.1517241 L16.446506,16.0882759 L16.8387226,16.2878162 L17.229643,16.4924405 L17.6071498,16.6962096 C21.5314744,18.8486488 24.1967445,21.4206798 24.1967445,25.7710345 C24.1967445,31.4317241 19.046586,36 12.0463707,36 C5.41453395,36 0.448231618,32.7892999 0.00816392237,26.7531042 L0,26.6245 L6.79620911,25.775 L6.79711543,25.887886 C6.84127989,29.9254024 8.50369408,32.9213793 12.6963907,32.9213793 C16.0964953,32.9213793 18.296563,30.7862069 18.296563,27.7572414 C18.296563,25.1725123 16.7049164,23.3062474 12.9531781,21.3116852 L12.7463922,21.2027586 L8.69626758,19.1172414 C4.34613373,16.9324138 1.64605065,13.8041379 1.64605065,9.63310345 C1.64605065,4.27034483 6.04618604,0 12.7463922,0 Z M98.0990184,9.93103448 C103.884196,9.93103448 107.273443,12.8930636 107.348045,18.4809936 L107.349303,18.6703448 L107.349303,35.4041379 L101.949137,35.4041379 L101.949137,30.5875862 C100.349088,33.8151724 97.2489923,35.9006897 93.7988861,35.9006897 C90.2987784,35.9006897 87.9487061,33.8648276 87.9487061,30.7862069 C87.9487061,27.6621391 90.1231482,25.161892 94.4245304,23.3326386 L94.6489123,23.2386207 L101.949137,20.3089655 L101.949137,19.5144828 C101.849134,16.0386207 99.1490507,14.697931 95.5989415,14.697931 C92.9988615,14.697931 90.4987846,15.4924138 88.4487215,17.28 C88.7487307,14.5986207 90.1487738,12.662069 91.8988277,11.52 C93.6488815,10.377931 95.6989446,9.93103448 98.0990184,9.93103448 Z M120.799717,9.93103448 C125.888564,9.93103448 129.610504,12.7428712 129.987822,17.4563915 L130,17.6275862 L123.749808,18.3724138 L123.749808,17.577931 C123.749808,14.6482759 122.299763,12.8606897 119.949691,12.8606897 C116.899597,12.8606897 114.349518,15.7406897 114.349518,21.0537931 C114.349518,28.1048276 118.849657,31.0841379 122.999785,31.0841379 C125.599865,31.0841379 127.899935,30.0910345 129.699991,28.2537931 C129.34998,32.822069 125.399858,35.9006897 120.299702,35.9006897 C114.299517,35.9006897 108.749346,31.382069 108.749346,23.0896552 C108.749346,15.84 113.599495,9.93103448 120.799717,9.93103448 Z M31.6509739,10 L31.6509739,25.4419483 C31.6509739,29.4640172 33.3010246,31.400569 36.5511246,31.400569 C38.0307156,31.400569 39.6469844,30.9481324 41.0955122,30.1296334 L41.3012708,30.0102241 L41.3012708,10.731 L47.0014462,10.0185 L47.0014462,35.2736724 L41.3012708,35.2736724 L41.3012708,31.0033276 C39.2512077,33.9329828 36.6011262,35.7702241 33.051017,35.7702241 C29.0008923,35.7702241 26.0729245,33.0569426 26.002113,27.582519 L26.0008,27.3785 L26.0008,10.706 L31.6509739,10 Z M79.3484415,9.93103448 C83.4967173,9.93103448 86.3768547,12.4981789 86.4473369,17.8238225 L86.44866,18.0248276 L86.44866,35.4041379 L80.7484846,35.4041379 L80.7484846,20.4082759 C80.7484846,16.2372414 79.29844,14.3006897 75.9983384,14.3006897 C74.2982861,14.3006897 72.4482292,14.8965517 70.8981815,15.9393103 C70.9881843,16.4308966 71.0376858,17.0833655 71.0466861,17.7519228 L71.0481861,17.9751724 L71.0481861,35.4041379 L65.3480107,35.4041379 L65.3480107,20.4082759 C65.3480107,16.137931 63.8979661,14.3006897 60.547863,14.3006897 C58.9287656,14.3006897 57.355021,14.7510767 55.8698225,15.5231688 L55.6977138,15.6145 L55.6977138,35.2551724 L55.6477122,35.255 L55.6477122,35.4041379 L49.9975384,35.4041379 L49.9975384,10.7125 L55.6977138,10 L55.6977138,14.5815 L55.7831404,14.4681495 C58.0021247,11.5524546 60.5668636,9.93103448 63.9479676,9.93103448 C67.2980707,9.93103448 69.7981476,11.5696552 70.6981753,14.9958621 C72.9482446,11.7682759 75.7983323,9.93103448 79.3484415,9.93103448 Z M101.949137,24.182069 L94.89892,24.182069 C93.8488877,25.2744828 93.3488723,26.5158621 93.3488723,27.9558621 C93.3488723,30.0413793 94.4989077,31.5806897 97.1489892,31.5806897 C98.6918938,31.5806897 100.560255,30.9342857 101.812573,29.8195687 L101.949137,29.6937931 L101.949137,24.182069 Z M63.1967292,0.5 C64.4203046,0.5 65.4588636,1.1888672 65.8612048,2.43040516 L65.8993015,2.55639615 L64.6428424,2.55639615 C64.3978724,1.97111417 63.8289098,1.6389271 63.1967292,1.6389271 C62.2010447,1.6389271 61.5451572,2.3823934 61.5451572,3.37104539 C61.5451572,4.3676066 62.2089469,5.12689133 63.2046314,5.12689133 C63.8409712,5.12689133 64.3638336,4.89263832 64.6522758,4.35688263 L64.6981582,4.2647868 L63.2362405,4.2647868 L63.2362405,3.26822558 L66.0020308,3.26822558 C65.9625195,5.42744154 64.4610905,6.25 63.1967292,6.25 C61.5056459,6.24209078 60.3282095,5.00034388 60.3282095,3.37104539 C60.3282095,1.74965612 61.5056459,0.5 63.1967292,0.5 Z M30.1257788,0.602819807 L30.1257788,1.71011004 L28.6480565,1.71011004 L28.6480565,6.13927098 L27.4785223,6.13927098 L27.4785223,1.71011004 L26.0008,1.71011004 L26.0008,0.602819807 L30.1257788,0.602819807 Z M34.4878253,0.602819807 L36.344856,6.13927098 L35.1042014,6.13927098 L34.7485998,5.03198074 L32.5754788,5.03198074 L32.2198772,6.13927098 L30.9555159,6.13927098 L32.8283511,0.602819807 L34.4878253,0.602819807 Z M39.1027441,0.602819807 L39.1027441,5.03988996 L41.2916696,5.03988996 L41.2916696,6.13927098 L37.9253076,6.13927098 L37.9253076,0.602819807 L39.1027441,0.602819807 Z M44.2471141,0.602819807 L44.2471141,2.7303989 L44.8002722,2.7303989 L46.0409267,0.602819807 L47.4712354,0.602819807 L45.8117612,3.26822558 L47.5423558,6.13927098 L46.0962425,6.13927098 L44.7923699,3.83768913 L44.2471141,3.83768913 L44.2471141,6.13927098 L43.0696777,6.13927098 L43.0696777,0.602819807 L44.2471141,0.602819807 Z M51.8806955,0.602819807 L51.8806955,1.67847318 L51.1220787,1.67847318 L51.1220787,5.06361761 L51.8806955,5.06361761 L51.8806955,6.13927098 L49.20183,6.13927098 L49.20183,5.06361761 L49.9446423,5.06361761 L49.9446423,1.67847318 L49.20183,1.67847318 L49.20183,0.602819807 L51.8806955,0.602819807 Z M55.9424562,0.602819807 L57.222622,4.95288858 L57.3016446,4.95288858 L57.3016446,0.602819807 L58.4711788,0.602819807 L58.4711788,6.13927098 L56.4482007,6.13927098 L55.1996439,1.7892022 L55.1127191,1.7892022 L55.1127191,6.13927098 L53.9352826,6.13927098 L53.9352826,0.602819807 L55.9424562,0.602819807 Z M33.6975995,1.7892022 L33.6106746,1.7892022 L32.9152759,3.95632737 L34.4009004,3.95632737 L33.6975995,1.7892022 Z" id="Logo"></path>
            </g>
        </g>
    </g>
</svg>